<svg xmlns="http://www.w3.org/2000/svg" xmlns:xlink="http://www.w3.org/1999/xlink" width="307pt" height="303pt" viewBox="0.00 0.00 307.00 303.00">
<g id="graph0" class="graph" transform="scale(1 1) rotate(0) translate(4 299)">
<title>structs</title>
<text text-anchor="middle" x="149.5" y="-7.8" font-family="Times,serif" font-size="14.00" fill="#4a4a4a">Inference in   3.92ms</text>
<!-- A -->
<g id="node1" class="node">
<title>A</title>
<polygon fill="#e0e0e0" stroke="#000000" points="101,-295 0,-295 0,-254 101,-254 101,-295"/>
<svg viewBox="0 0 132.1625 52.998125" width="101px" height="41px" preserveAspectRatio="xMinYMin meet" x="0" y="-295"> <metadata>
  <rdf:RDF xmlns:cc="http://creativecommons.org/ns#" xmlns:dc="http://purl.org/dc/elements/1.1/" xmlns:rdf="http://www.w3.org/1999/02/22-rdf-syntax-ns#">
   <cc:Work>
    <dc:type rdf:resource="http://purl.org/dc/dcmitype/StillImage"/>
    <dc:date>2022-08-04T14:41:34.089448</dc:date>
    <dc:format>image/svg+xml</dc:format>
    <dc:creator>
     <cc:Agent>
      <dc:title>Matplotlib v3.3.2, https://matplotlib.org/</dc:title>
     </cc:Agent>
    </dc:creator>
   </cc:Work>
  </rdf:RDF>
 </metadata>
 <defs>
  <style type="text/css">*{stroke-linecap:butt;stroke-linejoin:round;}</style>
 </defs>
 <g id="figure_1">
  <g id="patch_1">
   <path d="M 0 52.998125  L 132.1625 52.998125  L 132.1625 0  L 0 0  z " style="fill:#e0e0e0;"/>
  </g>
  <g id="axes_1">
   <g id="patch_2">
    <path d="M 16.9625 45.898125  L 128.5625 45.898125  L 128.5625 18.718125  L 16.9625 18.718125  z " style="fill:#ffffff;"/>
   </g>
   <g id="patch_3">
    <path clip-path="url(#p1319dbc1c6)" d="M 16.9625 45.898125  L 18.0785 45.898125  L 18.0785 33.818125  L 16.9625 33.818125  z " style="fill:#8fbc8f;"/>
   </g>
   <g id="patch_4">
    <path clip-path="url(#p1319dbc1c6)" d="M 16.9625 30.798125  L 127.4465 30.798125  L 127.4465 18.718125  L 16.9625 18.718125  z " style="fill:#8fbc8f;"/>
   </g>
   <g id="matplotlib.axis_1">
    <g id="xtick_1">
     <g id="line2d_1">
      <path clip-path="url(#p1319dbc1c6)" d="M 16.9625 45.898125  L 16.9625 18.718125  " style="fill:none;stroke:#b0b0b0;stroke-linecap:square;stroke-width:0.8;"/>
     </g>
     <g id="line2d_2">
      <defs>
       <path d="M 0 0  L 0 3.5  " id="mdde55e637c" style="stroke:#000000;stroke-width:0.8;"/>
      </defs>
      <g>
       <use style="stroke:#000000;stroke-width:0.8;" x="16.9625" xlink:href="#mdde55e637c" y="45.898125"/>
      </g>
     </g>
    </g>
    <g id="xtick_2">
     <g id="line2d_3">
      <path clip-path="url(#p1319dbc1c6)" d="M 72.7625 45.898125  L 72.7625 18.718125  " style="fill:none;stroke:#b0b0b0;stroke-linecap:square;stroke-width:0.8;"/>
     </g>
     <g id="line2d_4">
      <g>
       <use style="stroke:#000000;stroke-width:0.8;" x="72.7625" xlink:href="#mdde55e637c" y="45.898125"/>
      </g>
     </g>
    </g>
    <g id="xtick_3">
     <g id="line2d_5">
      <path clip-path="url(#p1319dbc1c6)" d="M 128.5625 45.898125  L 128.5625 18.718125  " style="fill:none;stroke:#b0b0b0;stroke-linecap:square;stroke-width:0.8;"/>
     </g>
     <g id="line2d_6">
      <g>
       <use style="stroke:#000000;stroke-width:0.8;" x="128.5625" xlink:href="#mdde55e637c" y="45.898125"/>
      </g>
     </g>
    </g>
   </g>
   <g id="matplotlib.axis_2">
    <g id="ytick_1">
     <g id="line2d_7">
      <defs>
       <path d="M 0 0  L -3.5 0  " id="mc9e537a1bd" style="stroke:#000000;stroke-width:0.8;"/>
      </defs>
      <g>
       <use style="stroke:#000000;stroke-width:0.8;" x="16.9625" xlink:href="#mc9e537a1bd" y="39.858125"/>
      </g>
     </g>
     <g id="text_1">
      <!-- 1 -->
      <g transform="translate(3.6 43.657344)scale(0.1 -0.1)">
       <defs>
        <path d="M 12.40625 8.296875  L 28.515625 8.296875  L 28.515625 63.921875  L 10.984375 60.40625  L 10.984375 69.390625  L 28.421875 72.90625  L 38.28125 72.90625  L 38.28125 8.296875  L 54.390625 8.296875  L 54.390625 0  L 12.40625 0  z " id="DejaVuSans-49"/>
       </defs>
       <use xlink:href="#DejaVuSans-49"/>
      </g>
     </g>
    </g>
    <g id="ytick_2">
     <g id="line2d_8">
      <g>
       <use style="stroke:#000000;stroke-width:0.8;" x="16.9625" xlink:href="#mc9e537a1bd" y="24.758125"/>
      </g>
     </g>
     <g id="text_2">
      <!-- 0 -->
      <g transform="translate(3.6 28.557344)scale(0.1 -0.1)">
       <defs>
        <path d="M 31.78125 66.40625  Q 24.171875 66.40625 20.328125 58.90625  Q 16.5 51.421875 16.5 36.375  Q 16.5 21.390625 20.328125 13.890625  Q 24.171875 6.390625 31.78125 6.390625  Q 39.453125 6.390625 43.28125 13.890625  Q 47.125 21.390625 47.125 36.375  Q 47.125 51.421875 43.28125 58.90625  Q 39.453125 66.40625 31.78125 66.40625  z M 31.78125 74.21875  Q 44.046875 74.21875 50.515625 64.515625  Q 56.984375 54.828125 56.984375 36.375  Q 56.984375 17.96875 50.515625 8.265625  Q 44.046875 -1.421875 31.78125 -1.421875  Q 19.53125 -1.421875 13.0625 8.265625  Q 6.59375 17.96875 6.59375 36.375  Q 6.59375 54.828125 13.0625 64.515625  Q 19.53125 74.21875 31.78125 74.21875  z " id="DejaVuSans-48"/>
       </defs>
       <use xlink:href="#DejaVuSans-48"/>
      </g>
     </g>
    </g>
   </g>
   <g id="patch_5">
    <path d="M 16.9625 45.898125  L 16.9625 18.718125  " style="fill:none;stroke:#000000;stroke-linecap:square;stroke-linejoin:miter;stroke-width:0.8;"/>
   </g>
   <g id="patch_6">
    <path d="M 128.5625 45.898125  L 128.5625 18.718125  " style="fill:none;stroke:#000000;stroke-linecap:square;stroke-linejoin:miter;stroke-width:0.8;"/>
   </g>
   <g id="patch_7">
    <path d="M 16.9625 45.898125  L 128.5625 45.898125  " style="fill:none;stroke:#000000;stroke-linecap:square;stroke-linejoin:miter;stroke-width:0.8;"/>
   </g>
   <g id="patch_8">
    <path d="M 16.9625 18.718125  L 128.5625 18.718125  " style="fill:none;stroke:#000000;stroke-linecap:square;stroke-linejoin:miter;stroke-width:0.8;"/>
   </g>
   <g id="text_3">
    <!-- 0.01 -->
    <g transform="translate(106.296875 43.818437)scale(0.1 -0.1)">
     <defs>
      <path d="M 10.6875 12.40625  L 21 12.40625  L 21 0  L 10.6875 0  z " id="DejaVuSans-46"/>
     </defs>
     <use xlink:href="#DejaVuSans-48"/>
     <use x="63.623047" xlink:href="#DejaVuSans-46"/>
     <use x="95.410156" xlink:href="#DejaVuSans-48"/>
     <use x="159.033203" xlink:href="#DejaVuSans-49"/>
    </g>
   </g>
   <g id="text_4">
    <!-- 0.99 -->
    <g transform="translate(106.296875 28.718437)scale(0.1 -0.1)">
     <defs>
      <path d="M 10.984375 1.515625  L 10.984375 10.5  Q 14.703125 8.734375 18.5 7.8125  Q 22.3125 6.890625 25.984375 6.890625  Q 35.75 6.890625 40.890625 13.453125  Q 46.046875 20.015625 46.78125 33.40625  Q 43.953125 29.203125 39.59375 26.953125  Q 35.25 24.703125 29.984375 24.703125  Q 19.046875 24.703125 12.671875 31.3125  Q 6.296875 37.9375 6.296875 49.421875  Q 6.296875 60.640625 12.9375 67.421875  Q 19.578125 74.21875 30.609375 74.21875  Q 43.265625 74.21875 49.921875 64.515625  Q 56.59375 54.828125 56.59375 36.375  Q 56.59375 19.140625 48.40625 8.859375  Q 40.234375 -1.421875 26.421875 -1.421875  Q 22.703125 -1.421875 18.890625 -0.6875  Q 15.09375 0.046875 10.984375 1.515625  z M 30.609375 32.421875  Q 37.25 32.421875 41.125 36.953125  Q 45.015625 41.5 45.015625 49.421875  Q 45.015625 57.28125 41.125 61.84375  Q 37.25 66.40625 30.609375 66.40625  Q 23.96875 66.40625 20.09375 61.84375  Q 16.21875 57.28125 16.21875 49.421875  Q 16.21875 41.5 20.09375 36.953125  Q 23.96875 32.421875 30.609375 32.421875  z " id="DejaVuSans-57"/>
     </defs>
     <use xlink:href="#DejaVuSans-48"/>
     <use x="63.623047" xlink:href="#DejaVuSans-46"/>
     <use x="95.410156" xlink:href="#DejaVuSans-57"/>
     <use x="159.033203" xlink:href="#DejaVuSans-57"/>
    </g>
   </g>
   <g id="text_5">
    <!-- A -->
    <g transform="translate(68.658125 12.718125)scale(0.12 -0.12)">
     <defs>
      <path d="M 34.1875 63.1875  L 20.796875 26.90625  L 47.609375 26.90625  z M 28.609375 72.90625  L 39.796875 72.90625  L 67.578125 0  L 57.328125 0  L 50.6875 18.703125  L 17.828125 18.703125  L 11.1875 0  L 0.78125 0  z " id="DejaVuSans-65"/>
     </defs>
     <use xlink:href="#DejaVuSans-65"/>
    </g>
   </g>
  </g>
 </g>
 <defs>
  <clipPath id="p1319dbc1c6">
   <rect height="27.18" width="111.6" x="16.9625" y="18.718125"/>
  </clipPath>
 </defs>
</svg>

</g>
<!-- T -->
<g id="node3" class="node">
<title>T</title>
<polygon fill="#e0e0e0" stroke="#000000" points="101,-218 0,-218 0,-177 101,-177 101,-218"/>
<svg viewBox="0 0 132.1625 52.998125" width="101px" height="41px" preserveAspectRatio="xMinYMin meet" x="0" y="-218"> <metadata>
  <rdf:RDF xmlns:cc="http://creativecommons.org/ns#" xmlns:dc="http://purl.org/dc/elements/1.1/" xmlns:rdf="http://www.w3.org/1999/02/22-rdf-syntax-ns#">
   <cc:Work>
    <dc:type rdf:resource="http://purl.org/dc/dcmitype/StillImage"/>
    <dc:date>2022-08-04T14:41:34.209871</dc:date>
    <dc:format>image/svg+xml</dc:format>
    <dc:creator>
     <cc:Agent>
      <dc:title>Matplotlib v3.3.2, https://matplotlib.org/</dc:title>
     </cc:Agent>
    </dc:creator>
   </cc:Work>
  </rdf:RDF>
 </metadata>
 <defs>
  <style type="text/css">*{stroke-linecap:butt;stroke-linejoin:round;}</style>
 </defs>
 <g id="figure_1">
  <g id="patch_1">
   <path d="M 0 52.998125  L 132.1625 52.998125  L 132.1625 0  L 0 0  z " style="fill:#e0e0e0;"/>
  </g>
  <g id="axes_1">
   <g id="patch_2">
    <path d="M 16.9625 45.898125  L 128.5625 45.898125  L 128.5625 18.718125  L 16.9625 18.718125  z " style="fill:#ffffff;"/>
   </g>
   <g id="patch_3">
    <path clip-path="url(#pf24def915f)" d="M 16.9625 45.898125  L 18.12314 45.898125  L 18.12314 33.818125  L 16.9625 33.818125  z " style="fill:#8fbc8f;"/>
   </g>
   <g id="patch_4">
    <path clip-path="url(#pf24def915f)" d="M 16.9625 30.798125  L 127.40186 30.798125  L 127.40186 18.718125  L 16.9625 18.718125  z " style="fill:#8fbc8f;"/>
   </g>
   <g id="matplotlib.axis_1">
    <g id="xtick_1">
     <g id="line2d_1">
      <path clip-path="url(#pf24def915f)" d="M 16.9625 45.898125  L 16.9625 18.718125  " style="fill:none;stroke:#b0b0b0;stroke-linecap:square;stroke-width:0.8;"/>
     </g>
     <g id="line2d_2">
      <defs>
       <path d="M 0 0  L 0 3.5  " id="ma3f2fd7a67" style="stroke:#000000;stroke-width:0.8;"/>
      </defs>
      <g>
       <use style="stroke:#000000;stroke-width:0.8;" x="16.9625" xlink:href="#ma3f2fd7a67" y="45.898125"/>
      </g>
     </g>
    </g>
    <g id="xtick_2">
     <g id="line2d_3">
      <path clip-path="url(#pf24def915f)" d="M 72.7625 45.898125  L 72.7625 18.718125  " style="fill:none;stroke:#b0b0b0;stroke-linecap:square;stroke-width:0.8;"/>
     </g>
     <g id="line2d_4">
      <g>
       <use style="stroke:#000000;stroke-width:0.8;" x="72.7625" xlink:href="#ma3f2fd7a67" y="45.898125"/>
      </g>
     </g>
    </g>
    <g id="xtick_3">
     <g id="line2d_5">
      <path clip-path="url(#pf24def915f)" d="M 128.5625 45.898125  L 128.5625 18.718125  " style="fill:none;stroke:#b0b0b0;stroke-linecap:square;stroke-width:0.8;"/>
     </g>
     <g id="line2d_6">
      <g>
       <use style="stroke:#000000;stroke-width:0.8;" x="128.5625" xlink:href="#ma3f2fd7a67" y="45.898125"/>
      </g>
     </g>
    </g>
   </g>
   <g id="matplotlib.axis_2">
    <g id="ytick_1">
     <g id="line2d_7">
      <defs>
       <path d="M 0 0  L -3.5 0  " id="m3832a5a61a" style="stroke:#000000;stroke-width:0.8;"/>
      </defs>
      <g>
       <use style="stroke:#000000;stroke-width:0.8;" x="16.9625" xlink:href="#m3832a5a61a" y="39.858125"/>
      </g>
     </g>
     <g id="text_1">
      <!-- 1 -->
      <g transform="translate(3.6 43.657344)scale(0.1 -0.1)">
       <defs>
        <path d="M 12.40625 8.296875  L 28.515625 8.296875  L 28.515625 63.921875  L 10.984375 60.40625  L 10.984375 69.390625  L 28.421875 72.90625  L 38.28125 72.90625  L 38.28125 8.296875  L 54.390625 8.296875  L 54.390625 0  L 12.40625 0  z " id="DejaVuSans-49"/>
       </defs>
       <use xlink:href="#DejaVuSans-49"/>
      </g>
     </g>
    </g>
    <g id="ytick_2">
     <g id="line2d_8">
      <g>
       <use style="stroke:#000000;stroke-width:0.8;" x="16.9625" xlink:href="#m3832a5a61a" y="24.758125"/>
      </g>
     </g>
     <g id="text_2">
      <!-- 0 -->
      <g transform="translate(3.6 28.557344)scale(0.1 -0.1)">
       <defs>
        <path d="M 31.78125 66.40625  Q 24.171875 66.40625 20.328125 58.90625  Q 16.5 51.421875 16.5 36.375  Q 16.5 21.390625 20.328125 13.890625  Q 24.171875 6.390625 31.78125 6.390625  Q 39.453125 6.390625 43.28125 13.890625  Q 47.125 21.390625 47.125 36.375  Q 47.125 51.421875 43.28125 58.90625  Q 39.453125 66.40625 31.78125 66.40625  z M 31.78125 74.21875  Q 44.046875 74.21875 50.515625 64.515625  Q 56.984375 54.828125 56.984375 36.375  Q 56.984375 17.96875 50.515625 8.265625  Q 44.046875 -1.421875 31.78125 -1.421875  Q 19.53125 -1.421875 13.0625 8.265625  Q 6.59375 17.96875 6.59375 36.375  Q 6.59375 54.828125 13.0625 64.515625  Q 19.53125 74.21875 31.78125 74.21875  z " id="DejaVuSans-48"/>
       </defs>
       <use xlink:href="#DejaVuSans-48"/>
      </g>
     </g>
    </g>
   </g>
   <g id="patch_5">
    <path d="M 16.9625 45.898125  L 16.9625 18.718125  " style="fill:none;stroke:#000000;stroke-linecap:square;stroke-linejoin:miter;stroke-width:0.8;"/>
   </g>
   <g id="patch_6">
    <path d="M 128.5625 45.898125  L 128.5625 18.718125  " style="fill:none;stroke:#000000;stroke-linecap:square;stroke-linejoin:miter;stroke-width:0.8;"/>
   </g>
   <g id="patch_7">
    <path d="M 16.9625 45.898125  L 128.5625 45.898125  " style="fill:none;stroke:#000000;stroke-linecap:square;stroke-linejoin:miter;stroke-width:0.8;"/>
   </g>
   <g id="patch_8">
    <path d="M 16.9625 18.718125  L 128.5625 18.718125  " style="fill:none;stroke:#000000;stroke-linecap:square;stroke-linejoin:miter;stroke-width:0.8;"/>
   </g>
   <g id="text_3">
    <!-- 0.01 -->
    <g transform="translate(106.296875 43.818437)scale(0.1 -0.1)">
     <defs>
      <path d="M 10.6875 12.40625  L 21 12.40625  L 21 0  L 10.6875 0  z " id="DejaVuSans-46"/>
     </defs>
     <use xlink:href="#DejaVuSans-48"/>
     <use x="63.623047" xlink:href="#DejaVuSans-46"/>
     <use x="95.410156" xlink:href="#DejaVuSans-48"/>
     <use x="159.033203" xlink:href="#DejaVuSans-49"/>
    </g>
   </g>
   <g id="text_4">
    <!-- 0.99 -->
    <g transform="translate(106.296875 28.718437)scale(0.1 -0.1)">
     <defs>
      <path d="M 10.984375 1.515625  L 10.984375 10.5  Q 14.703125 8.734375 18.5 7.8125  Q 22.3125 6.890625 25.984375 6.890625  Q 35.75 6.890625 40.890625 13.453125  Q 46.046875 20.015625 46.78125 33.40625  Q 43.953125 29.203125 39.59375 26.953125  Q 35.25 24.703125 29.984375 24.703125  Q 19.046875 24.703125 12.671875 31.3125  Q 6.296875 37.9375 6.296875 49.421875  Q 6.296875 60.640625 12.9375 67.421875  Q 19.578125 74.21875 30.609375 74.21875  Q 43.265625 74.21875 49.921875 64.515625  Q 56.59375 54.828125 56.59375 36.375  Q 56.59375 19.140625 48.40625 8.859375  Q 40.234375 -1.421875 26.421875 -1.421875  Q 22.703125 -1.421875 18.890625 -0.6875  Q 15.09375 0.046875 10.984375 1.515625  z M 30.609375 32.421875  Q 37.25 32.421875 41.125 36.953125  Q 45.015625 41.5 45.015625 49.421875  Q 45.015625 57.28125 41.125 61.84375  Q 37.25 66.40625 30.609375 66.40625  Q 23.96875 66.40625 20.09375 61.84375  Q 16.21875 57.28125 16.21875 49.421875  Q 16.21875 41.5 20.09375 36.953125  Q 23.96875 32.421875 30.609375 32.421875  z " id="DejaVuSans-57"/>
     </defs>
     <use xlink:href="#DejaVuSans-48"/>
     <use x="63.623047" xlink:href="#DejaVuSans-46"/>
     <use x="95.410156" xlink:href="#DejaVuSans-57"/>
     <use x="159.033203" xlink:href="#DejaVuSans-57"/>
    </g>
   </g>
   <g id="text_5">
    <!-- T -->
    <g transform="translate(69.097813 12.718125)scale(0.12 -0.12)">
     <defs>
      <path d="M -0.296875 72.90625  L 61.375 72.90625  L 61.375 64.59375  L 35.5 64.59375  L 35.5 0  L 25.59375 0  L 25.59375 64.59375  L -0.296875 64.59375  z " id="DejaVuSans-84"/>
     </defs>
     <use xlink:href="#DejaVuSans-84"/>
    </g>
   </g>
  </g>
 </g>
 <defs>
  <clipPath id="pf24def915f">
   <rect height="27.18" width="111.6" x="16.9625" y="18.718125"/>
  </clipPath>
 </defs>
</svg>

</g>
<!-- A&#45;&gt;T -->
<g id="edge4" class="edge">
<title>A-&gt;T</title>
<g id="a_edge4"><a xlink:title="(0, 2):">
<path fill="none" stroke="#4a4a4a" d="M50.5,-253.79C50.5,-245.96 50.5,-236.77 50.5,-228.16"/>
<polygon fill="#4a4a4a" stroke="#4a4a4a" points="54,-228.07 50.5,-218.07 47,-228.07 54,-228.07"/>
</a>
</g>
</g>
<!-- S -->
<g id="node2" class="node">
<title>S</title>
<polygon fill="#e0e0e0" stroke="#000000" points="259,-295 158,-295 158,-254 259,-254 259,-295"/>
<svg viewBox="0 0 132.1625 52.998125" width="101px" height="41px" preserveAspectRatio="xMinYMin meet" x="158" y="-295"> <metadata>
  <rdf:RDF xmlns:cc="http://creativecommons.org/ns#" xmlns:dc="http://purl.org/dc/elements/1.1/" xmlns:rdf="http://www.w3.org/1999/02/22-rdf-syntax-ns#">
   <cc:Work>
    <dc:type rdf:resource="http://purl.org/dc/dcmitype/StillImage"/>
    <dc:date>2022-08-04T14:41:34.164903</dc:date>
    <dc:format>image/svg+xml</dc:format>
    <dc:creator>
     <cc:Agent>
      <dc:title>Matplotlib v3.3.2, https://matplotlib.org/</dc:title>
     </cc:Agent>
    </dc:creator>
   </cc:Work>
  </rdf:RDF>
 </metadata>
 <defs>
  <style type="text/css">*{stroke-linecap:butt;stroke-linejoin:round;}</style>
 </defs>
 <g id="figure_1">
  <g id="patch_1">
   <path d="M 0 52.998125  L 132.1625 52.998125  L 132.1625 0  L 0 0  z " style="fill:#e0e0e0;"/>
  </g>
  <g id="axes_1">
   <g id="patch_2">
    <path d="M 16.9625 45.898125  L 128.5625 45.898125  L 128.5625 18.718125  L 16.9625 18.718125  z " style="fill:#ffffff;"/>
   </g>
   <g id="patch_3">
    <path clip-path="url(#pee8d7813d4)" d="M 16.9625 45.898125  L 72.7625 45.898125  L 72.7625 33.818125  L 16.9625 33.818125  z " style="fill:#8fbc8f;"/>
   </g>
   <g id="patch_4">
    <path clip-path="url(#pee8d7813d4)" d="M 16.9625 30.798125  L 72.7625 30.798125  L 72.7625 18.718125  L 16.9625 18.718125  z " style="fill:#8fbc8f;"/>
   </g>
   <g id="matplotlib.axis_1">
    <g id="xtick_1">
     <g id="line2d_1">
      <path clip-path="url(#pee8d7813d4)" d="M 16.9625 45.898125  L 16.9625 18.718125  " style="fill:none;stroke:#b0b0b0;stroke-linecap:square;stroke-width:0.8;"/>
     </g>
     <g id="line2d_2">
      <defs>
       <path d="M 0 0  L 0 3.5  " id="mce04574f91" style="stroke:#000000;stroke-width:0.8;"/>
      </defs>
      <g>
       <use style="stroke:#000000;stroke-width:0.8;" x="16.9625" xlink:href="#mce04574f91" y="45.898125"/>
      </g>
     </g>
    </g>
    <g id="xtick_2">
     <g id="line2d_3">
      <path clip-path="url(#pee8d7813d4)" d="M 72.7625 45.898125  L 72.7625 18.718125  " style="fill:none;stroke:#b0b0b0;stroke-linecap:square;stroke-width:0.8;"/>
     </g>
     <g id="line2d_4">
      <g>
       <use style="stroke:#000000;stroke-width:0.8;" x="72.7625" xlink:href="#mce04574f91" y="45.898125"/>
      </g>
     </g>
    </g>
    <g id="xtick_3">
     <g id="line2d_5">
      <path clip-path="url(#pee8d7813d4)" d="M 128.5625 45.898125  L 128.5625 18.718125  " style="fill:none;stroke:#b0b0b0;stroke-linecap:square;stroke-width:0.8;"/>
     </g>
     <g id="line2d_6">
      <g>
       <use style="stroke:#000000;stroke-width:0.8;" x="128.5625" xlink:href="#mce04574f91" y="45.898125"/>
      </g>
     </g>
    </g>
   </g>
   <g id="matplotlib.axis_2">
    <g id="ytick_1">
     <g id="line2d_7">
      <defs>
       <path d="M 0 0  L -3.5 0  " id="mb774822084" style="stroke:#000000;stroke-width:0.8;"/>
      </defs>
      <g>
       <use style="stroke:#000000;stroke-width:0.8;" x="16.9625" xlink:href="#mb774822084" y="39.858125"/>
      </g>
     </g>
     <g id="text_1">
      <!-- 1 -->
      <g transform="translate(3.6 43.657344)scale(0.1 -0.1)">
       <defs>
        <path d="M 12.40625 8.296875  L 28.515625 8.296875  L 28.515625 63.921875  L 10.984375 60.40625  L 10.984375 69.390625  L 28.421875 72.90625  L 38.28125 72.90625  L 38.28125 8.296875  L 54.390625 8.296875  L 54.390625 0  L 12.40625 0  z " id="DejaVuSans-49"/>
       </defs>
       <use xlink:href="#DejaVuSans-49"/>
      </g>
     </g>
    </g>
    <g id="ytick_2">
     <g id="line2d_8">
      <g>
       <use style="stroke:#000000;stroke-width:0.8;" x="16.9625" xlink:href="#mb774822084" y="24.758125"/>
      </g>
     </g>
     <g id="text_2">
      <!-- 0 -->
      <g transform="translate(3.6 28.557344)scale(0.1 -0.1)">
       <defs>
        <path d="M 31.78125 66.40625  Q 24.171875 66.40625 20.328125 58.90625  Q 16.5 51.421875 16.5 36.375  Q 16.5 21.390625 20.328125 13.890625  Q 24.171875 6.390625 31.78125 6.390625  Q 39.453125 6.390625 43.28125 13.890625  Q 47.125 21.390625 47.125 36.375  Q 47.125 51.421875 43.28125 58.90625  Q 39.453125 66.40625 31.78125 66.40625  z M 31.78125 74.21875  Q 44.046875 74.21875 50.515625 64.515625  Q 56.984375 54.828125 56.984375 36.375  Q 56.984375 17.96875 50.515625 8.265625  Q 44.046875 -1.421875 31.78125 -1.421875  Q 19.53125 -1.421875 13.0625 8.265625  Q 6.59375 17.96875 6.59375 36.375  Q 6.59375 54.828125 13.0625 64.515625  Q 19.53125 74.21875 31.78125 74.21875  z " id="DejaVuSans-48"/>
       </defs>
       <use xlink:href="#DejaVuSans-48"/>
      </g>
     </g>
    </g>
   </g>
   <g id="patch_5">
    <path d="M 16.9625 45.898125  L 16.9625 18.718125  " style="fill:none;stroke:#000000;stroke-linecap:square;stroke-linejoin:miter;stroke-width:0.8;"/>
   </g>
   <g id="patch_6">
    <path d="M 128.5625 45.898125  L 128.5625 18.718125  " style="fill:none;stroke:#000000;stroke-linecap:square;stroke-linejoin:miter;stroke-width:0.8;"/>
   </g>
   <g id="patch_7">
    <path d="M 16.9625 45.898125  L 128.5625 45.898125  " style="fill:none;stroke:#000000;stroke-linecap:square;stroke-linejoin:miter;stroke-width:0.8;"/>
   </g>
   <g id="patch_8">
    <path d="M 16.9625 18.718125  L 128.5625 18.718125  " style="fill:none;stroke:#000000;stroke-linecap:square;stroke-linejoin:miter;stroke-width:0.8;"/>
   </g>
   <g id="text_3">
    <!-- 0.5 -->
    <g transform="translate(112.659375 43.818437)scale(0.1 -0.1)">
     <defs>
      <path d="M 10.6875 12.40625  L 21 12.40625  L 21 0  L 10.6875 0  z " id="DejaVuSans-46"/>
      <path d="M 10.796875 72.90625  L 49.515625 72.90625  L 49.515625 64.59375  L 19.828125 64.59375  L 19.828125 46.734375  Q 21.96875 47.46875 24.109375 47.828125  Q 26.265625 48.1875 28.421875 48.1875  Q 40.625 48.1875 47.75 41.5  Q 54.890625 34.8125 54.890625 23.390625  Q 54.890625 11.625 47.5625 5.09375  Q 40.234375 -1.421875 26.90625 -1.421875  Q 22.3125 -1.421875 17.546875 -0.640625  Q 12.796875 0.140625 7.71875 1.703125  L 7.71875 11.625  Q 12.109375 9.234375 16.796875 8.0625  Q 21.484375 6.890625 26.703125 6.890625  Q 35.15625 6.890625 40.078125 11.328125  Q 45.015625 15.765625 45.015625 23.390625  Q 45.015625 31 40.078125 35.4375  Q 35.15625 39.890625 26.703125 39.890625  Q 22.75 39.890625 18.8125 39.015625  Q 14.890625 38.140625 10.796875 36.28125  z " id="DejaVuSans-53"/>
     </defs>
     <use xlink:href="#DejaVuSans-48"/>
     <use x="63.623047" xlink:href="#DejaVuSans-46"/>
     <use x="95.410156" xlink:href="#DejaVuSans-53"/>
    </g>
   </g>
   <g id="text_4">
    <!-- 0.5 -->
    <g transform="translate(112.659375 28.718437)scale(0.1 -0.1)">
     <use xlink:href="#DejaVuSans-48"/>
     <use x="63.623047" xlink:href="#DejaVuSans-46"/>
     <use x="95.410156" xlink:href="#DejaVuSans-53"/>
    </g>
   </g>
   <g id="text_5">
    <!-- S -->
    <g transform="translate(68.953438 12.718125)scale(0.12 -0.12)">
     <defs>
      <path d="M 53.515625 70.515625  L 53.515625 60.890625  Q 47.90625 63.578125 42.921875 64.890625  Q 37.9375 66.21875 33.296875 66.21875  Q 25.25 66.21875 20.875 63.09375  Q 16.5 59.96875 16.5 54.203125  Q 16.5 49.359375 19.40625 46.890625  Q 22.3125 44.4375 30.421875 42.921875  L 36.375 41.703125  Q 47.40625 39.59375 52.65625 34.296875  Q 57.90625 29 57.90625 20.125  Q 57.90625 9.515625 50.796875 4.046875  Q 43.703125 -1.421875 29.984375 -1.421875  Q 24.8125 -1.421875 18.96875 -0.25  Q 13.140625 0.921875 6.890625 3.21875  L 6.890625 13.375  Q 12.890625 10.015625 18.65625 8.296875  Q 24.421875 6.59375 29.984375 6.59375  Q 38.421875 6.59375 43.015625 9.90625  Q 47.609375 13.234375 47.609375 19.390625  Q 47.609375 24.75 44.3125 27.78125  Q 41.015625 30.8125 33.5 32.328125  L 27.484375 33.5  Q 16.453125 35.6875 11.515625 40.375  Q 6.59375 45.0625 6.59375 53.421875  Q 6.59375 63.09375 13.40625 68.65625  Q 20.21875 74.21875 32.171875 74.21875  Q 37.3125 74.21875 42.625 73.28125  Q 47.953125 72.359375 53.515625 70.515625  z " id="DejaVuSans-83"/>
     </defs>
     <use xlink:href="#DejaVuSans-83"/>
    </g>
   </g>
  </g>
 </g>
 <defs>
  <clipPath id="pee8d7813d4">
   <rect height="27.18" width="111.6" x="16.9625" y="18.718125"/>
  </clipPath>
 </defs>
</svg>

</g>
<!-- L -->
<g id="node4" class="node">
<title>L</title>
<polygon fill="#e0e0e0" stroke="#000000" points="220,-218 119,-218 119,-177 220,-177 220,-218"/>
<svg viewBox="0 0 132.1625 52.998125" width="101px" height="41px" preserveAspectRatio="xMinYMin meet" x="119" y="-218"> <metadata>
  <rdf:RDF xmlns:cc="http://creativecommons.org/ns#" xmlns:dc="http://purl.org/dc/elements/1.1/" xmlns:rdf="http://www.w3.org/1999/02/22-rdf-syntax-ns#">
   <cc:Work>
    <dc:type rdf:resource="http://purl.org/dc/dcmitype/StillImage"/>
    <dc:date>2022-08-04T14:41:34.255313</dc:date>
    <dc:format>image/svg+xml</dc:format>
    <dc:creator>
     <cc:Agent>
      <dc:title>Matplotlib v3.3.2, https://matplotlib.org/</dc:title>
     </cc:Agent>
    </dc:creator>
   </cc:Work>
  </rdf:RDF>
 </metadata>
 <defs>
  <style type="text/css">*{stroke-linecap:butt;stroke-linejoin:round;}</style>
 </defs>
 <g id="figure_1">
  <g id="patch_1">
   <path d="M 0 52.998125  L 132.1625 52.998125  L 132.1625 0  L 0 0  z " style="fill:#e0e0e0;"/>
  </g>
  <g id="axes_1">
   <g id="patch_2">
    <path d="M 16.9625 45.898125  L 128.5625 45.898125  L 128.5625 18.718125  L 16.9625 18.718125  z " style="fill:#ffffff;"/>
   </g>
   <g id="patch_3">
    <path clip-path="url(#p4436976061)" d="M 16.9625 45.898125  L 23.1005 45.898125  L 23.1005 33.818125  L 16.9625 33.818125  z " style="fill:#8fbc8f;"/>
   </g>
   <g id="patch_4">
    <path clip-path="url(#p4436976061)" d="M 16.9625 30.798125  L 122.4245 30.798125  L 122.4245 18.718125  L 16.9625 18.718125  z " style="fill:#8fbc8f;"/>
   </g>
   <g id="matplotlib.axis_1">
    <g id="xtick_1">
     <g id="line2d_1">
      <path clip-path="url(#p4436976061)" d="M 16.9625 45.898125  L 16.9625 18.718125  " style="fill:none;stroke:#b0b0b0;stroke-linecap:square;stroke-width:0.8;"/>
     </g>
     <g id="line2d_2">
      <defs>
       <path d="M 0 0  L 0 3.5  " id="me9df5e8a49" style="stroke:#000000;stroke-width:0.8;"/>
      </defs>
      <g>
       <use style="stroke:#000000;stroke-width:0.8;" x="16.9625" xlink:href="#me9df5e8a49" y="45.898125"/>
      </g>
     </g>
    </g>
    <g id="xtick_2">
     <g id="line2d_3">
      <path clip-path="url(#p4436976061)" d="M 72.7625 45.898125  L 72.7625 18.718125  " style="fill:none;stroke:#b0b0b0;stroke-linecap:square;stroke-width:0.8;"/>
     </g>
     <g id="line2d_4">
      <g>
       <use style="stroke:#000000;stroke-width:0.8;" x="72.7625" xlink:href="#me9df5e8a49" y="45.898125"/>
      </g>
     </g>
    </g>
    <g id="xtick_3">
     <g id="line2d_5">
      <path clip-path="url(#p4436976061)" d="M 128.5625 45.898125  L 128.5625 18.718125  " style="fill:none;stroke:#b0b0b0;stroke-linecap:square;stroke-width:0.8;"/>
     </g>
     <g id="line2d_6">
      <g>
       <use style="stroke:#000000;stroke-width:0.8;" x="128.5625" xlink:href="#me9df5e8a49" y="45.898125"/>
      </g>
     </g>
    </g>
   </g>
   <g id="matplotlib.axis_2">
    <g id="ytick_1">
     <g id="line2d_7">
      <defs>
       <path d="M 0 0  L -3.5 0  " id="m5dc1ff1e2f" style="stroke:#000000;stroke-width:0.8;"/>
      </defs>
      <g>
       <use style="stroke:#000000;stroke-width:0.8;" x="16.9625" xlink:href="#m5dc1ff1e2f" y="39.858125"/>
      </g>
     </g>
     <g id="text_1">
      <!-- 1 -->
      <g transform="translate(3.6 43.657344)scale(0.1 -0.1)">
       <defs>
        <path d="M 12.40625 8.296875  L 28.515625 8.296875  L 28.515625 63.921875  L 10.984375 60.40625  L 10.984375 69.390625  L 28.421875 72.90625  L 38.28125 72.90625  L 38.28125 8.296875  L 54.390625 8.296875  L 54.390625 0  L 12.40625 0  z " id="DejaVuSans-49"/>
       </defs>
       <use xlink:href="#DejaVuSans-49"/>
      </g>
     </g>
    </g>
    <g id="ytick_2">
     <g id="line2d_8">
      <g>
       <use style="stroke:#000000;stroke-width:0.8;" x="16.9625" xlink:href="#m5dc1ff1e2f" y="24.758125"/>
      </g>
     </g>
     <g id="text_2">
      <!-- 0 -->
      <g transform="translate(3.6 28.557344)scale(0.1 -0.1)">
       <defs>
        <path d="M 31.78125 66.40625  Q 24.171875 66.40625 20.328125 58.90625  Q 16.5 51.421875 16.5 36.375  Q 16.5 21.390625 20.328125 13.890625  Q 24.171875 6.390625 31.78125 6.390625  Q 39.453125 6.390625 43.28125 13.890625  Q 47.125 21.390625 47.125 36.375  Q 47.125 51.421875 43.28125 58.90625  Q 39.453125 66.40625 31.78125 66.40625  z M 31.78125 74.21875  Q 44.046875 74.21875 50.515625 64.515625  Q 56.984375 54.828125 56.984375 36.375  Q 56.984375 17.96875 50.515625 8.265625  Q 44.046875 -1.421875 31.78125 -1.421875  Q 19.53125 -1.421875 13.0625 8.265625  Q 6.59375 17.96875 6.59375 36.375  Q 6.59375 54.828125 13.0625 64.515625  Q 19.53125 74.21875 31.78125 74.21875  z " id="DejaVuSans-48"/>
       </defs>
       <use xlink:href="#DejaVuSans-48"/>
      </g>
     </g>
    </g>
   </g>
   <g id="patch_5">
    <path d="M 16.9625 45.898125  L 16.9625 18.718125  " style="fill:none;stroke:#000000;stroke-linecap:square;stroke-linejoin:miter;stroke-width:0.8;"/>
   </g>
   <g id="patch_6">
    <path d="M 128.5625 45.898125  L 128.5625 18.718125  " style="fill:none;stroke:#000000;stroke-linecap:square;stroke-linejoin:miter;stroke-width:0.8;"/>
   </g>
   <g id="patch_7">
    <path d="M 16.9625 45.898125  L 128.5625 45.898125  " style="fill:none;stroke:#000000;stroke-linecap:square;stroke-linejoin:miter;stroke-width:0.8;"/>
   </g>
   <g id="patch_8">
    <path d="M 16.9625 18.718125  L 128.5625 18.718125  " style="fill:none;stroke:#000000;stroke-linecap:square;stroke-linejoin:miter;stroke-width:0.8;"/>
   </g>
   <g id="text_3">
    <!-- 0.055 -->
    <g transform="translate(99.934375 43.818437)scale(0.1 -0.1)">
     <defs>
      <path d="M 10.6875 12.40625  L 21 12.40625  L 21 0  L 10.6875 0  z " id="DejaVuSans-46"/>
      <path d="M 10.796875 72.90625  L 49.515625 72.90625  L 49.515625 64.59375  L 19.828125 64.59375  L 19.828125 46.734375  Q 21.96875 47.46875 24.109375 47.828125  Q 26.265625 48.1875 28.421875 48.1875  Q 40.625 48.1875 47.75 41.5  Q 54.890625 34.8125 54.890625 23.390625  Q 54.890625 11.625 47.5625 5.09375  Q 40.234375 -1.421875 26.90625 -1.421875  Q 22.3125 -1.421875 17.546875 -0.640625  Q 12.796875 0.140625 7.71875 1.703125  L 7.71875 11.625  Q 12.109375 9.234375 16.796875 8.0625  Q 21.484375 6.890625 26.703125 6.890625  Q 35.15625 6.890625 40.078125 11.328125  Q 45.015625 15.765625 45.015625 23.390625  Q 45.015625 31 40.078125 35.4375  Q 35.15625 39.890625 26.703125 39.890625  Q 22.75 39.890625 18.8125 39.015625  Q 14.890625 38.140625 10.796875 36.28125  z " id="DejaVuSans-53"/>
     </defs>
     <use xlink:href="#DejaVuSans-48"/>
     <use x="63.623047" xlink:href="#DejaVuSans-46"/>
     <use x="95.410156" xlink:href="#DejaVuSans-48"/>
     <use x="159.033203" xlink:href="#DejaVuSans-53"/>
     <use x="222.65625" xlink:href="#DejaVuSans-53"/>
    </g>
   </g>
   <g id="text_4">
    <!-- 0.95 -->
    <g transform="translate(106.296875 28.718437)scale(0.1 -0.1)">
     <defs>
      <path d="M 10.984375 1.515625  L 10.984375 10.5  Q 14.703125 8.734375 18.5 7.8125  Q 22.3125 6.890625 25.984375 6.890625  Q 35.75 6.890625 40.890625 13.453125  Q 46.046875 20.015625 46.78125 33.40625  Q 43.953125 29.203125 39.59375 26.953125  Q 35.25 24.703125 29.984375 24.703125  Q 19.046875 24.703125 12.671875 31.3125  Q 6.296875 37.9375 6.296875 49.421875  Q 6.296875 60.640625 12.9375 67.421875  Q 19.578125 74.21875 30.609375 74.21875  Q 43.265625 74.21875 49.921875 64.515625  Q 56.59375 54.828125 56.59375 36.375  Q 56.59375 19.140625 48.40625 8.859375  Q 40.234375 -1.421875 26.421875 -1.421875  Q 22.703125 -1.421875 18.890625 -0.6875  Q 15.09375 0.046875 10.984375 1.515625  z M 30.609375 32.421875  Q 37.25 32.421875 41.125 36.953125  Q 45.015625 41.5 45.015625 49.421875  Q 45.015625 57.28125 41.125 61.84375  Q 37.25 66.40625 30.609375 66.40625  Q 23.96875 66.40625 20.09375 61.84375  Q 16.21875 57.28125 16.21875 49.421875  Q 16.21875 41.5 20.09375 36.953125  Q 23.96875 32.421875 30.609375 32.421875  z " id="DejaVuSans-57"/>
     </defs>
     <use xlink:href="#DejaVuSans-48"/>
     <use x="63.623047" xlink:href="#DejaVuSans-46"/>
     <use x="95.410156" xlink:href="#DejaVuSans-57"/>
     <use x="159.033203" xlink:href="#DejaVuSans-53"/>
    </g>
   </g>
   <g id="text_5">
    <!-- L -->
    <g transform="translate(69.419375 12.718125)scale(0.12 -0.12)">
     <defs>
      <path d="M 9.8125 72.90625  L 19.671875 72.90625  L 19.671875 8.296875  L 55.171875 8.296875  L 55.171875 0  L 9.8125 0  z " id="DejaVuSans-76"/>
     </defs>
     <use xlink:href="#DejaVuSans-76"/>
    </g>
   </g>
  </g>
 </g>
 <defs>
  <clipPath id="p4436976061">
   <rect height="27.18" width="111.6" x="16.9625" y="18.718125"/>
  </clipPath>
 </defs>
</svg>

</g>
<!-- S&#45;&gt;L -->
<g id="edge7" class="edge">
<title>S-&gt;L</title>
<g id="a_edge7"><a xlink:title="(1, 3):">
<path fill="none" stroke="#4a4a4a" d="M198.25,-253.79C194,-245.61 188.98,-235.96 184.33,-227.03"/>
<polygon fill="#4a4a4a" stroke="#4a4a4a" points="187.4,-225.33 179.68,-218.07 181.19,-228.56 187.4,-225.33"/>
</a>
</g>
</g>
<!-- B -->
<g id="node5" class="node">
<title>B</title>
<polygon fill="#e0e0e0" stroke="#000000" points="299,-141 198,-141 198,-100 299,-100 299,-141"/>
<svg viewBox="0 0 132.1625 52.998125" width="101px" height="41px" preserveAspectRatio="xMinYMin meet" x="198" y="-141"> <metadata>
  <rdf:RDF xmlns:cc="http://creativecommons.org/ns#" xmlns:dc="http://purl.org/dc/elements/1.1/" xmlns:rdf="http://www.w3.org/1999/02/22-rdf-syntax-ns#">
   <cc:Work>
    <dc:type rdf:resource="http://purl.org/dc/dcmitype/StillImage"/>
    <dc:date>2022-08-04T14:41:34.299981</dc:date>
    <dc:format>image/svg+xml</dc:format>
    <dc:creator>
     <cc:Agent>
      <dc:title>Matplotlib v3.3.2, https://matplotlib.org/</dc:title>
     </cc:Agent>
    </dc:creator>
   </cc:Work>
  </rdf:RDF>
 </metadata>
 <defs>
  <style type="text/css">*{stroke-linecap:butt;stroke-linejoin:round;}</style>
 </defs>
 <g id="figure_1">
  <g id="patch_1">
   <path d="M 0 52.998125  L 132.1625 52.998125  L 132.1625 0  L 0 0  z " style="fill:#e0e0e0;"/>
  </g>
  <g id="axes_1">
   <g id="patch_2">
    <path d="M 16.9625 45.898125  L 128.5625 45.898125  L 128.5625 18.718125  L 16.9625 18.718125  z " style="fill:#ffffff;"/>
   </g>
   <g id="patch_3">
    <path clip-path="url(#pd3e9154748)" d="M 16.9625 45.898125  L 67.1825 45.898125  L 67.1825 33.818125  L 16.9625 33.818125  z " style="fill:#8fbc8f;"/>
   </g>
   <g id="patch_4">
    <path clip-path="url(#pd3e9154748)" d="M 16.9625 30.798125  L 78.3425 30.798125  L 78.3425 18.718125  L 16.9625 18.718125  z " style="fill:#8fbc8f;"/>
   </g>
   <g id="matplotlib.axis_1">
    <g id="xtick_1">
     <g id="line2d_1">
      <path clip-path="url(#pd3e9154748)" d="M 16.9625 45.898125  L 16.9625 18.718125  " style="fill:none;stroke:#b0b0b0;stroke-linecap:square;stroke-width:0.8;"/>
     </g>
     <g id="line2d_2">
      <defs>
       <path d="M 0 0  L 0 3.5  " id="m96a6a4da2a" style="stroke:#000000;stroke-width:0.8;"/>
      </defs>
      <g>
       <use style="stroke:#000000;stroke-width:0.8;" x="16.9625" xlink:href="#m96a6a4da2a" y="45.898125"/>
      </g>
     </g>
    </g>
    <g id="xtick_2">
     <g id="line2d_3">
      <path clip-path="url(#pd3e9154748)" d="M 72.7625 45.898125  L 72.7625 18.718125  " style="fill:none;stroke:#b0b0b0;stroke-linecap:square;stroke-width:0.8;"/>
     </g>
     <g id="line2d_4">
      <g>
       <use style="stroke:#000000;stroke-width:0.8;" x="72.7625" xlink:href="#m96a6a4da2a" y="45.898125"/>
      </g>
     </g>
    </g>
    <g id="xtick_3">
     <g id="line2d_5">
      <path clip-path="url(#pd3e9154748)" d="M 128.5625 45.898125  L 128.5625 18.718125  " style="fill:none;stroke:#b0b0b0;stroke-linecap:square;stroke-width:0.8;"/>
     </g>
     <g id="line2d_6">
      <g>
       <use style="stroke:#000000;stroke-width:0.8;" x="128.5625" xlink:href="#m96a6a4da2a" y="45.898125"/>
      </g>
     </g>
    </g>
   </g>
   <g id="matplotlib.axis_2">
    <g id="ytick_1">
     <g id="line2d_7">
      <defs>
       <path d="M 0 0  L -3.5 0  " id="mbc6a207b51" style="stroke:#000000;stroke-width:0.8;"/>
      </defs>
      <g>
       <use style="stroke:#000000;stroke-width:0.8;" x="16.9625" xlink:href="#mbc6a207b51" y="39.858125"/>
      </g>
     </g>
     <g id="text_1">
      <!-- 1 -->
      <g transform="translate(3.6 43.657344)scale(0.1 -0.1)">
       <defs>
        <path d="M 12.40625 8.296875  L 28.515625 8.296875  L 28.515625 63.921875  L 10.984375 60.40625  L 10.984375 69.390625  L 28.421875 72.90625  L 38.28125 72.90625  L 38.28125 8.296875  L 54.390625 8.296875  L 54.390625 0  L 12.40625 0  z " id="DejaVuSans-49"/>
       </defs>
       <use xlink:href="#DejaVuSans-49"/>
      </g>
     </g>
    </g>
    <g id="ytick_2">
     <g id="line2d_8">
      <g>
       <use style="stroke:#000000;stroke-width:0.8;" x="16.9625" xlink:href="#mbc6a207b51" y="24.758125"/>
      </g>
     </g>
     <g id="text_2">
      <!-- 0 -->
      <g transform="translate(3.6 28.557344)scale(0.1 -0.1)">
       <defs>
        <path d="M 31.78125 66.40625  Q 24.171875 66.40625 20.328125 58.90625  Q 16.5 51.421875 16.5 36.375  Q 16.5 21.390625 20.328125 13.890625  Q 24.171875 6.390625 31.78125 6.390625  Q 39.453125 6.390625 43.28125 13.890625  Q 47.125 21.390625 47.125 36.375  Q 47.125 51.421875 43.28125 58.90625  Q 39.453125 66.40625 31.78125 66.40625  z M 31.78125 74.21875  Q 44.046875 74.21875 50.515625 64.515625  Q 56.984375 54.828125 56.984375 36.375  Q 56.984375 17.96875 50.515625 8.265625  Q 44.046875 -1.421875 31.78125 -1.421875  Q 19.53125 -1.421875 13.0625 8.265625  Q 6.59375 17.96875 6.59375 36.375  Q 6.59375 54.828125 13.0625 64.515625  Q 19.53125 74.21875 31.78125 74.21875  z " id="DejaVuSans-48"/>
       </defs>
       <use xlink:href="#DejaVuSans-48"/>
      </g>
     </g>
    </g>
   </g>
   <g id="patch_5">
    <path d="M 16.9625 45.898125  L 16.9625 18.718125  " style="fill:none;stroke:#000000;stroke-linecap:square;stroke-linejoin:miter;stroke-width:0.8;"/>
   </g>
   <g id="patch_6">
    <path d="M 128.5625 45.898125  L 128.5625 18.718125  " style="fill:none;stroke:#000000;stroke-linecap:square;stroke-linejoin:miter;stroke-width:0.8;"/>
   </g>
   <g id="patch_7">
    <path d="M 16.9625 45.898125  L 128.5625 45.898125  " style="fill:none;stroke:#000000;stroke-linecap:square;stroke-linejoin:miter;stroke-width:0.8;"/>
   </g>
   <g id="patch_8">
    <path d="M 16.9625 18.718125  L 128.5625 18.718125  " style="fill:none;stroke:#000000;stroke-linecap:square;stroke-linejoin:miter;stroke-width:0.8;"/>
   </g>
   <g id="text_3">
    <!-- 0.45 -->
    <g transform="translate(106.296875 43.818437)scale(0.1 -0.1)">
     <defs>
      <path d="M 10.6875 12.40625  L 21 12.40625  L 21 0  L 10.6875 0  z " id="DejaVuSans-46"/>
      <path d="M 37.796875 64.3125  L 12.890625 25.390625  L 37.796875 25.390625  z M 35.203125 72.90625  L 47.609375 72.90625  L 47.609375 25.390625  L 58.015625 25.390625  L 58.015625 17.1875  L 47.609375 17.1875  L 47.609375 0  L 37.796875 0  L 37.796875 17.1875  L 4.890625 17.1875  L 4.890625 26.703125  z " id="DejaVuSans-52"/>
      <path d="M 10.796875 72.90625  L 49.515625 72.90625  L 49.515625 64.59375  L 19.828125 64.59375  L 19.828125 46.734375  Q 21.96875 47.46875 24.109375 47.828125  Q 26.265625 48.1875 28.421875 48.1875  Q 40.625 48.1875 47.75 41.5  Q 54.890625 34.8125 54.890625 23.390625  Q 54.890625 11.625 47.5625 5.09375  Q 40.234375 -1.421875 26.90625 -1.421875  Q 22.3125 -1.421875 17.546875 -0.640625  Q 12.796875 0.140625 7.71875 1.703125  L 7.71875 11.625  Q 12.109375 9.234375 16.796875 8.0625  Q 21.484375 6.890625 26.703125 6.890625  Q 35.15625 6.890625 40.078125 11.328125  Q 45.015625 15.765625 45.015625 23.390625  Q 45.015625 31 40.078125 35.4375  Q 35.15625 39.890625 26.703125 39.890625  Q 22.75 39.890625 18.8125 39.015625  Q 14.890625 38.140625 10.796875 36.28125  z " id="DejaVuSans-53"/>
     </defs>
     <use xlink:href="#DejaVuSans-48"/>
     <use x="63.623047" xlink:href="#DejaVuSans-46"/>
     <use x="95.410156" xlink:href="#DejaVuSans-52"/>
     <use x="159.033203" xlink:href="#DejaVuSans-53"/>
    </g>
   </g>
   <g id="text_4">
    <!-- 0.55 -->
    <g transform="translate(106.296875 28.718437)scale(0.1 -0.1)">
     <use xlink:href="#DejaVuSans-48"/>
     <use x="63.623047" xlink:href="#DejaVuSans-46"/>
     <use x="95.410156" xlink:href="#DejaVuSans-53"/>
     <use x="159.033203" xlink:href="#DejaVuSans-53"/>
    </g>
   </g>
   <g id="text_5">
    <!-- B -->
    <g transform="translate(68.645938 12.718125)scale(0.12 -0.12)">
     <defs>
      <path d="M 19.671875 34.8125  L 19.671875 8.109375  L 35.5 8.109375  Q 43.453125 8.109375 47.28125 11.40625  Q 51.125 14.703125 51.125 21.484375  Q 51.125 28.328125 47.28125 31.5625  Q 43.453125 34.8125 35.5 34.8125  z M 19.671875 64.796875  L 19.671875 42.828125  L 34.28125 42.828125  Q 41.5 42.828125 45.03125 45.53125  Q 48.578125 48.25 48.578125 53.8125  Q 48.578125 59.328125 45.03125 62.0625  Q 41.5 64.796875 34.28125 64.796875  z M 9.8125 72.90625  L 35.015625 72.90625  Q 46.296875 72.90625 52.390625 68.21875  Q 58.5 63.53125 58.5 54.890625  Q 58.5 48.1875 55.375 44.234375  Q 52.25 40.28125 46.1875 39.3125  Q 53.46875 37.75 57.5 32.78125  Q 61.53125 27.828125 61.53125 20.40625  Q 61.53125 10.640625 54.890625 5.3125  Q 48.25 0 35.984375 0  L 9.8125 0  z " id="DejaVuSans-66"/>
     </defs>
     <use xlink:href="#DejaVuSans-66"/>
    </g>
   </g>
  </g>
 </g>
 <defs>
  <clipPath id="pd3e9154748">
   <rect height="27.18" width="111.6" x="16.9625" y="18.718125"/>
  </clipPath>
 </defs>
</svg>

</g>
<!-- S&#45;&gt;B -->
<g id="edge3" class="edge">
<title>S-&gt;B</title>
<g id="a_edge3"><a xlink:title="(1, 4):">
<path fill="none" stroke="#4a4a4a" d="M216.31,-253.94C220.33,-243.41 225.08,-230.12 228.5,-218 234.74,-195.91 239.93,-170.47 243.46,-151.26"/>
<polygon fill="#4a4a4a" stroke="#4a4a4a" points="246.93,-151.75 245.24,-141.29 240.04,-150.51 246.93,-151.75"/>
</a>
</g>
</g>
<!-- E -->
<g id="node6" class="node">
<title>E</title>
<polygon fill="#e0e0e0" stroke="#000000" points="180,-141 79,-141 79,-100 180,-100 180,-141"/>
<svg viewBox="0 0 132.1625 52.998125" width="101px" height="41px" preserveAspectRatio="xMinYMin meet" x="79" y="-141"> <metadata>
  <rdf:RDF xmlns:cc="http://creativecommons.org/ns#" xmlns:dc="http://purl.org/dc/elements/1.1/" xmlns:rdf="http://www.w3.org/1999/02/22-rdf-syntax-ns#">
   <cc:Work>
    <dc:type rdf:resource="http://purl.org/dc/dcmitype/StillImage"/>
    <dc:date>2022-08-04T14:41:34.345165</dc:date>
    <dc:format>image/svg+xml</dc:format>
    <dc:creator>
     <cc:Agent>
      <dc:title>Matplotlib v3.3.2, https://matplotlib.org/</dc:title>
     </cc:Agent>
    </dc:creator>
   </cc:Work>
  </rdf:RDF>
 </metadata>
 <defs>
  <style type="text/css">*{stroke-linecap:butt;stroke-linejoin:round;}</style>
 </defs>
 <g id="figure_1">
  <g id="patch_1">
   <path d="M 0 52.998125  L 132.1625 52.998125  L 132.1625 0  L 0 0  z " style="fill:#e0e0e0;"/>
  </g>
  <g id="axes_1">
   <g id="patch_2">
    <path d="M 16.9625 45.898125  L 128.5625 45.898125  L 128.5625 18.718125  L 16.9625 18.718125  z " style="fill:#ffffff;"/>
   </g>
   <g id="patch_3">
    <path clip-path="url(#pb04fd67fcf)" d="M 16.9625 45.898125  L 24.197305 45.898125  L 24.197305 33.818125  L 16.9625 33.818125  z " style="fill:#8fbc8f;"/>
   </g>
   <g id="patch_4">
    <path clip-path="url(#pb04fd67fcf)" d="M 16.9625 30.798125  L 121.327695 30.798125  L 121.327695 18.718125  L 16.9625 18.718125  z " style="fill:#8fbc8f;"/>
   </g>
   <g id="matplotlib.axis_1">
    <g id="xtick_1">
     <g id="line2d_1">
      <path clip-path="url(#pb04fd67fcf)" d="M 16.9625 45.898125  L 16.9625 18.718125  " style="fill:none;stroke:#b0b0b0;stroke-linecap:square;stroke-width:0.8;"/>
     </g>
     <g id="line2d_2">
      <defs>
       <path d="M 0 0  L 0 3.5  " id="mea6ed3d63f" style="stroke:#000000;stroke-width:0.8;"/>
      </defs>
      <g>
       <use style="stroke:#000000;stroke-width:0.8;" x="16.9625" xlink:href="#mea6ed3d63f" y="45.898125"/>
      </g>
     </g>
    </g>
    <g id="xtick_2">
     <g id="line2d_3">
      <path clip-path="url(#pb04fd67fcf)" d="M 72.7625 45.898125  L 72.7625 18.718125  " style="fill:none;stroke:#b0b0b0;stroke-linecap:square;stroke-width:0.8;"/>
     </g>
     <g id="line2d_4">
      <g>
       <use style="stroke:#000000;stroke-width:0.8;" x="72.7625" xlink:href="#mea6ed3d63f" y="45.898125"/>
      </g>
     </g>
    </g>
    <g id="xtick_3">
     <g id="line2d_5">
      <path clip-path="url(#pb04fd67fcf)" d="M 128.5625 45.898125  L 128.5625 18.718125  " style="fill:none;stroke:#b0b0b0;stroke-linecap:square;stroke-width:0.8;"/>
     </g>
     <g id="line2d_6">
      <g>
       <use style="stroke:#000000;stroke-width:0.8;" x="128.5625" xlink:href="#mea6ed3d63f" y="45.898125"/>
      </g>
     </g>
    </g>
   </g>
   <g id="matplotlib.axis_2">
    <g id="ytick_1">
     <g id="line2d_7">
      <defs>
       <path d="M 0 0  L -3.5 0  " id="m8ede8e9f09" style="stroke:#000000;stroke-width:0.8;"/>
      </defs>
      <g>
       <use style="stroke:#000000;stroke-width:0.8;" x="16.9625" xlink:href="#m8ede8e9f09" y="39.858125"/>
      </g>
     </g>
     <g id="text_1">
      <!-- 1 -->
      <g transform="translate(3.6 43.657344)scale(0.1 -0.1)">
       <defs>
        <path d="M 12.40625 8.296875  L 28.515625 8.296875  L 28.515625 63.921875  L 10.984375 60.40625  L 10.984375 69.390625  L 28.421875 72.90625  L 38.28125 72.90625  L 38.28125 8.296875  L 54.390625 8.296875  L 54.390625 0  L 12.40625 0  z " id="DejaVuSans-49"/>
       </defs>
       <use xlink:href="#DejaVuSans-49"/>
      </g>
     </g>
    </g>
    <g id="ytick_2">
     <g id="line2d_8">
      <g>
       <use style="stroke:#000000;stroke-width:0.8;" x="16.9625" xlink:href="#m8ede8e9f09" y="24.758125"/>
      </g>
     </g>
     <g id="text_2">
      <!-- 0 -->
      <g transform="translate(3.6 28.557344)scale(0.1 -0.1)">
       <defs>
        <path d="M 31.78125 66.40625  Q 24.171875 66.40625 20.328125 58.90625  Q 16.5 51.421875 16.5 36.375  Q 16.5 21.390625 20.328125 13.890625  Q 24.171875 6.390625 31.78125 6.390625  Q 39.453125 6.390625 43.28125 13.890625  Q 47.125 21.390625 47.125 36.375  Q 47.125 51.421875 43.28125 58.90625  Q 39.453125 66.40625 31.78125 66.40625  z M 31.78125 74.21875  Q 44.046875 74.21875 50.515625 64.515625  Q 56.984375 54.828125 56.984375 36.375  Q 56.984375 17.96875 50.515625 8.265625  Q 44.046875 -1.421875 31.78125 -1.421875  Q 19.53125 -1.421875 13.0625 8.265625  Q 6.59375 17.96875 6.59375 36.375  Q 6.59375 54.828125 13.0625 64.515625  Q 19.53125 74.21875 31.78125 74.21875  z " id="DejaVuSans-48"/>
       </defs>
       <use xlink:href="#DejaVuSans-48"/>
      </g>
     </g>
    </g>
   </g>
   <g id="patch_5">
    <path d="M 16.9625 45.898125  L 16.9625 18.718125  " style="fill:none;stroke:#000000;stroke-linecap:square;stroke-linejoin:miter;stroke-width:0.8;"/>
   </g>
   <g id="patch_6">
    <path d="M 128.5625 45.898125  L 128.5625 18.718125  " style="fill:none;stroke:#000000;stroke-linecap:square;stroke-linejoin:miter;stroke-width:0.8;"/>
   </g>
   <g id="patch_7">
    <path d="M 16.9625 45.898125  L 128.5625 45.898125  " style="fill:none;stroke:#000000;stroke-linecap:square;stroke-linejoin:miter;stroke-width:0.8;"/>
   </g>
   <g id="patch_8">
    <path d="M 16.9625 18.718125  L 128.5625 18.718125  " style="fill:none;stroke:#000000;stroke-linecap:square;stroke-linejoin:miter;stroke-width:0.8;"/>
   </g>
   <g id="text_3">
    <!-- 0.065 -->
    <g transform="translate(99.934375 43.818437)scale(0.1 -0.1)">
     <defs>
      <path d="M 10.6875 12.40625  L 21 12.40625  L 21 0  L 10.6875 0  z " id="DejaVuSans-46"/>
      <path d="M 33.015625 40.375  Q 26.375 40.375 22.484375 35.828125  Q 18.609375 31.296875 18.609375 23.390625  Q 18.609375 15.53125 22.484375 10.953125  Q 26.375 6.390625 33.015625 6.390625  Q 39.65625 6.390625 43.53125 10.953125  Q 47.40625 15.53125 47.40625 23.390625  Q 47.40625 31.296875 43.53125 35.828125  Q 39.65625 40.375 33.015625 40.375  z M 52.59375 71.296875  L 52.59375 62.3125  Q 48.875 64.0625 45.09375 64.984375  Q 41.3125 65.921875 37.59375 65.921875  Q 27.828125 65.921875 22.671875 59.328125  Q 17.53125 52.734375 16.796875 39.40625  Q 19.671875 43.65625 24.015625 45.921875  Q 28.375 48.1875 33.59375 48.1875  Q 44.578125 48.1875 50.953125 41.515625  Q 57.328125 34.859375 57.328125 23.390625  Q 57.328125 12.15625 50.6875 5.359375  Q 44.046875 -1.421875 33.015625 -1.421875  Q 20.359375 -1.421875 13.671875 8.265625  Q 6.984375 17.96875 6.984375 36.375  Q 6.984375 53.65625 15.1875 63.9375  Q 23.390625 74.21875 37.203125 74.21875  Q 40.921875 74.21875 44.703125 73.484375  Q 48.484375 72.75 52.59375 71.296875  z " id="DejaVuSans-54"/>
      <path d="M 10.796875 72.90625  L 49.515625 72.90625  L 49.515625 64.59375  L 19.828125 64.59375  L 19.828125 46.734375  Q 21.96875 47.46875 24.109375 47.828125  Q 26.265625 48.1875 28.421875 48.1875  Q 40.625 48.1875 47.75 41.5  Q 54.890625 34.8125 54.890625 23.390625  Q 54.890625 11.625 47.5625 5.09375  Q 40.234375 -1.421875 26.90625 -1.421875  Q 22.3125 -1.421875 17.546875 -0.640625  Q 12.796875 0.140625 7.71875 1.703125  L 7.71875 11.625  Q 12.109375 9.234375 16.796875 8.0625  Q 21.484375 6.890625 26.703125 6.890625  Q 35.15625 6.890625 40.078125 11.328125  Q 45.015625 15.765625 45.015625 23.390625  Q 45.015625 31 40.078125 35.4375  Q 35.15625 39.890625 26.703125 39.890625  Q 22.75 39.890625 18.8125 39.015625  Q 14.890625 38.140625 10.796875 36.28125  z " id="DejaVuSans-53"/>
     </defs>
     <use xlink:href="#DejaVuSans-48"/>
     <use x="63.623047" xlink:href="#DejaVuSans-46"/>
     <use x="95.410156" xlink:href="#DejaVuSans-48"/>
     <use x="159.033203" xlink:href="#DejaVuSans-54"/>
     <use x="222.65625" xlink:href="#DejaVuSans-53"/>
    </g>
   </g>
   <g id="text_4">
    <!-- 0.94 -->
    <g transform="translate(106.296875 28.718437)scale(0.1 -0.1)">
     <defs>
      <path d="M 10.984375 1.515625  L 10.984375 10.5  Q 14.703125 8.734375 18.5 7.8125  Q 22.3125 6.890625 25.984375 6.890625  Q 35.75 6.890625 40.890625 13.453125  Q 46.046875 20.015625 46.78125 33.40625  Q 43.953125 29.203125 39.59375 26.953125  Q 35.25 24.703125 29.984375 24.703125  Q 19.046875 24.703125 12.671875 31.3125  Q 6.296875 37.9375 6.296875 49.421875  Q 6.296875 60.640625 12.9375 67.421875  Q 19.578125 74.21875 30.609375 74.21875  Q 43.265625 74.21875 49.921875 64.515625  Q 56.59375 54.828125 56.59375 36.375  Q 56.59375 19.140625 48.40625 8.859375  Q 40.234375 -1.421875 26.421875 -1.421875  Q 22.703125 -1.421875 18.890625 -0.6875  Q 15.09375 0.046875 10.984375 1.515625  z M 30.609375 32.421875  Q 37.25 32.421875 41.125 36.953125  Q 45.015625 41.5 45.015625 49.421875  Q 45.015625 57.28125 41.125 61.84375  Q 37.25 66.40625 30.609375 66.40625  Q 23.96875 66.40625 20.09375 61.84375  Q 16.21875 57.28125 16.21875 49.421875  Q 16.21875 41.5 20.09375 36.953125  Q 23.96875 32.421875 30.609375 32.421875  z " id="DejaVuSans-57"/>
      <path d="M 37.796875 64.3125  L 12.890625 25.390625  L 37.796875 25.390625  z M 35.203125 72.90625  L 47.609375 72.90625  L 47.609375 25.390625  L 58.015625 25.390625  L 58.015625 17.1875  L 47.609375 17.1875  L 47.609375 0  L 37.796875 0  L 37.796875 17.1875  L 4.890625 17.1875  L 4.890625 26.703125  z " id="DejaVuSans-52"/>
     </defs>
     <use xlink:href="#DejaVuSans-48"/>
     <use x="63.623047" xlink:href="#DejaVuSans-46"/>
     <use x="95.410156" xlink:href="#DejaVuSans-57"/>
     <use x="159.033203" xlink:href="#DejaVuSans-52"/>
    </g>
   </g>
   <g id="text_5">
    <!-- E -->
    <g transform="translate(68.97125 12.718125)scale(0.12 -0.12)">
     <defs>
      <path d="M 9.8125 72.90625  L 55.90625 72.90625  L 55.90625 64.59375  L 19.671875 64.59375  L 19.671875 43.015625  L 54.390625 43.015625  L 54.390625 34.71875  L 19.671875 34.71875  L 19.671875 8.296875  L 56.78125 8.296875  L 56.78125 0  L 9.8125 0  z " id="DejaVuSans-69"/>
     </defs>
     <use xlink:href="#DejaVuSans-69"/>
    </g>
   </g>
  </g>
 </g>
 <defs>
  <clipPath id="pb04fd67fcf">
   <rect height="27.18" width="111.6" x="16.9625" y="18.718125"/>
  </clipPath>
 </defs>
</svg>

</g>
<!-- T&#45;&gt;E -->
<g id="edge6" class="edge">
<title>T-&gt;E</title>
<g id="a_edge6"><a xlink:title="(2, 5):">
<path fill="none" stroke="#4a4a4a" d="M71.26,-176.79C80.51,-168.01 91.55,-157.53 101.52,-148.07"/>
<polygon fill="#4a4a4a" stroke="#4a4a4a" points="104.04,-150.5 108.88,-141.07 99.22,-145.42 104.04,-150.5"/>
</a>
</g>
</g>
<!-- L&#45;&gt;E -->
<g id="edge8" class="edge">
<title>L-&gt;E</title>
<g id="a_edge8"><a xlink:title="(3, 5):">
<path fill="none" stroke="#4a4a4a" d="M158.99,-176.79C154.63,-168.61 149.48,-158.96 144.72,-150.03"/>
<polygon fill="#4a4a4a" stroke="#4a4a4a" points="147.73,-148.25 139.94,-141.07 141.56,-151.54 147.73,-148.25"/>
</a>
</g>
</g>
<!-- D -->
<g id="node7" class="node">
<title>D</title>
<polygon fill="#e0e0e0" stroke="#000000" points="299,-64 198,-64 198,-23 299,-23 299,-64"/>
<svg viewBox="0 0 132.1625 52.998125" width="101px" height="41px" preserveAspectRatio="xMinYMin meet" x="198" y="-64"> <metadata>
  <rdf:RDF xmlns:cc="http://creativecommons.org/ns#" xmlns:dc="http://purl.org/dc/elements/1.1/" xmlns:rdf="http://www.w3.org/1999/02/22-rdf-syntax-ns#">
   <cc:Work>
    <dc:type rdf:resource="http://purl.org/dc/dcmitype/StillImage"/>
    <dc:date>2022-08-04T14:41:34.393986</dc:date>
    <dc:format>image/svg+xml</dc:format>
    <dc:creator>
     <cc:Agent>
      <dc:title>Matplotlib v3.3.2, https://matplotlib.org/</dc:title>
     </cc:Agent>
    </dc:creator>
   </cc:Work>
  </rdf:RDF>
 </metadata>
 <defs>
  <style type="text/css">*{stroke-linecap:butt;stroke-linejoin:round;}</style>
 </defs>
 <g id="figure_1">
  <g id="patch_1">
   <path d="M 0 52.998125  L 132.1625 52.998125  L 132.1625 0  L 0 0  z " style="fill:#e0e0e0;"/>
  </g>
  <g id="axes_1">
   <g id="patch_2">
    <path d="M 16.9625 45.898125  L 128.5625 45.898125  L 128.5625 18.718125  L 16.9625 18.718125  z " style="fill:#ffffff;"/>
   </g>
   <g id="patch_3">
    <path clip-path="url(#p73dceefd1c)" d="M 16.9625 45.898125  L 65.616819 45.898125  L 65.616819 33.818125  L 16.9625 33.818125  z " style="fill:#8fbc8f;"/>
   </g>
   <g id="patch_4">
    <path clip-path="url(#p73dceefd1c)" d="M 16.9625 30.798125  L 79.908181 30.798125  L 79.908181 18.718125  L 16.9625 18.718125  z " style="fill:#8fbc8f;"/>
   </g>
   <g id="matplotlib.axis_1">
    <g id="xtick_1">
     <g id="line2d_1">
      <path clip-path="url(#p73dceefd1c)" d="M 16.9625 45.898125  L 16.9625 18.718125  " style="fill:none;stroke:#b0b0b0;stroke-linecap:square;stroke-width:0.8;"/>
     </g>
     <g id="line2d_2">
      <defs>
       <path d="M 0 0  L 0 3.5  " id="m3370a4b981" style="stroke:#000000;stroke-width:0.8;"/>
      </defs>
      <g>
       <use style="stroke:#000000;stroke-width:0.8;" x="16.9625" xlink:href="#m3370a4b981" y="45.898125"/>
      </g>
     </g>
    </g>
    <g id="xtick_2">
     <g id="line2d_3">
      <path clip-path="url(#p73dceefd1c)" d="M 72.7625 45.898125  L 72.7625 18.718125  " style="fill:none;stroke:#b0b0b0;stroke-linecap:square;stroke-width:0.8;"/>
     </g>
     <g id="line2d_4">
      <g>
       <use style="stroke:#000000;stroke-width:0.8;" x="72.7625" xlink:href="#m3370a4b981" y="45.898125"/>
      </g>
     </g>
    </g>
    <g id="xtick_3">
     <g id="line2d_5">
      <path clip-path="url(#p73dceefd1c)" d="M 128.5625 45.898125  L 128.5625 18.718125  " style="fill:none;stroke:#b0b0b0;stroke-linecap:square;stroke-width:0.8;"/>
     </g>
     <g id="line2d_6">
      <g>
       <use style="stroke:#000000;stroke-width:0.8;" x="128.5625" xlink:href="#m3370a4b981" y="45.898125"/>
      </g>
     </g>
    </g>
   </g>
   <g id="matplotlib.axis_2">
    <g id="ytick_1">
     <g id="line2d_7">
      <defs>
       <path d="M 0 0  L -3.5 0  " id="mc75f893332" style="stroke:#000000;stroke-width:0.8;"/>
      </defs>
      <g>
       <use style="stroke:#000000;stroke-width:0.8;" x="16.9625" xlink:href="#mc75f893332" y="39.858125"/>
      </g>
     </g>
     <g id="text_1">
      <!-- 1 -->
      <g transform="translate(3.6 43.657344)scale(0.1 -0.1)">
       <defs>
        <path d="M 12.40625 8.296875  L 28.515625 8.296875  L 28.515625 63.921875  L 10.984375 60.40625  L 10.984375 69.390625  L 28.421875 72.90625  L 38.28125 72.90625  L 38.28125 8.296875  L 54.390625 8.296875  L 54.390625 0  L 12.40625 0  z " id="DejaVuSans-49"/>
       </defs>
       <use xlink:href="#DejaVuSans-49"/>
      </g>
     </g>
    </g>
    <g id="ytick_2">
     <g id="line2d_8">
      <g>
       <use style="stroke:#000000;stroke-width:0.8;" x="16.9625" xlink:href="#mc75f893332" y="24.758125"/>
      </g>
     </g>
     <g id="text_2">
      <!-- 0 -->
      <g transform="translate(3.6 28.557344)scale(0.1 -0.1)">
       <defs>
        <path d="M 31.78125 66.40625  Q 24.171875 66.40625 20.328125 58.90625  Q 16.5 51.421875 16.5 36.375  Q 16.5 21.390625 20.328125 13.890625  Q 24.171875 6.390625 31.78125 6.390625  Q 39.453125 6.390625 43.28125 13.890625  Q 47.125 21.390625 47.125 36.375  Q 47.125 51.421875 43.28125 58.90625  Q 39.453125 66.40625 31.78125 66.40625  z M 31.78125 74.21875  Q 44.046875 74.21875 50.515625 64.515625  Q 56.984375 54.828125 56.984375 36.375  Q 56.984375 17.96875 50.515625 8.265625  Q 44.046875 -1.421875 31.78125 -1.421875  Q 19.53125 -1.421875 13.0625 8.265625  Q 6.59375 17.96875 6.59375 36.375  Q 6.59375 54.828125 13.0625 64.515625  Q 19.53125 74.21875 31.78125 74.21875  z " id="DejaVuSans-48"/>
       </defs>
       <use xlink:href="#DejaVuSans-48"/>
      </g>
     </g>
    </g>
   </g>
   <g id="patch_5">
    <path d="M 16.9625 45.898125  L 16.9625 18.718125  " style="fill:none;stroke:#000000;stroke-linecap:square;stroke-linejoin:miter;stroke-width:0.8;"/>
   </g>
   <g id="patch_6">
    <path d="M 128.5625 45.898125  L 128.5625 18.718125  " style="fill:none;stroke:#000000;stroke-linecap:square;stroke-linejoin:miter;stroke-width:0.8;"/>
   </g>
   <g id="patch_7">
    <path d="M 16.9625 45.898125  L 128.5625 45.898125  " style="fill:none;stroke:#000000;stroke-linecap:square;stroke-linejoin:miter;stroke-width:0.8;"/>
   </g>
   <g id="patch_8">
    <path d="M 16.9625 18.718125  L 128.5625 18.718125  " style="fill:none;stroke:#000000;stroke-linecap:square;stroke-linejoin:miter;stroke-width:0.8;"/>
   </g>
   <g id="text_3">
    <!-- 0.44 -->
    <g transform="translate(106.296875 43.818437)scale(0.1 -0.1)">
     <defs>
      <path d="M 10.6875 12.40625  L 21 12.40625  L 21 0  L 10.6875 0  z " id="DejaVuSans-46"/>
      <path d="M 37.796875 64.3125  L 12.890625 25.390625  L 37.796875 25.390625  z M 35.203125 72.90625  L 47.609375 72.90625  L 47.609375 25.390625  L 58.015625 25.390625  L 58.015625 17.1875  L 47.609375 17.1875  L 47.609375 0  L 37.796875 0  L 37.796875 17.1875  L 4.890625 17.1875  L 4.890625 26.703125  z " id="DejaVuSans-52"/>
     </defs>
     <use xlink:href="#DejaVuSans-48"/>
     <use x="63.623047" xlink:href="#DejaVuSans-46"/>
     <use x="95.410156" xlink:href="#DejaVuSans-52"/>
     <use x="159.033203" xlink:href="#DejaVuSans-52"/>
    </g>
   </g>
   <g id="text_4">
    <!-- 0.56 -->
    <g transform="translate(106.296875 28.718437)scale(0.1 -0.1)">
     <defs>
      <path d="M 10.796875 72.90625  L 49.515625 72.90625  L 49.515625 64.59375  L 19.828125 64.59375  L 19.828125 46.734375  Q 21.96875 47.46875 24.109375 47.828125  Q 26.265625 48.1875 28.421875 48.1875  Q 40.625 48.1875 47.75 41.5  Q 54.890625 34.8125 54.890625 23.390625  Q 54.890625 11.625 47.5625 5.09375  Q 40.234375 -1.421875 26.90625 -1.421875  Q 22.3125 -1.421875 17.546875 -0.640625  Q 12.796875 0.140625 7.71875 1.703125  L 7.71875 11.625  Q 12.109375 9.234375 16.796875 8.0625  Q 21.484375 6.890625 26.703125 6.890625  Q 35.15625 6.890625 40.078125 11.328125  Q 45.015625 15.765625 45.015625 23.390625  Q 45.015625 31 40.078125 35.4375  Q 35.15625 39.890625 26.703125 39.890625  Q 22.75 39.890625 18.8125 39.015625  Q 14.890625 38.140625 10.796875 36.28125  z " id="DejaVuSans-53"/>
      <path d="M 33.015625 40.375  Q 26.375 40.375 22.484375 35.828125  Q 18.609375 31.296875 18.609375 23.390625  Q 18.609375 15.53125 22.484375 10.953125  Q 26.375 6.390625 33.015625 6.390625  Q 39.65625 6.390625 43.53125 10.953125  Q 47.40625 15.53125 47.40625 23.390625  Q 47.40625 31.296875 43.53125 35.828125  Q 39.65625 40.375 33.015625 40.375  z M 52.59375 71.296875  L 52.59375 62.3125  Q 48.875 64.0625 45.09375 64.984375  Q 41.3125 65.921875 37.59375 65.921875  Q 27.828125 65.921875 22.671875 59.328125  Q 17.53125 52.734375 16.796875 39.40625  Q 19.671875 43.65625 24.015625 45.921875  Q 28.375 48.1875 33.59375 48.1875  Q 44.578125 48.1875 50.953125 41.515625  Q 57.328125 34.859375 57.328125 23.390625  Q 57.328125 12.15625 50.6875 5.359375  Q 44.046875 -1.421875 33.015625 -1.421875  Q 20.359375 -1.421875 13.671875 8.265625  Q 6.984375 17.96875 6.984375 36.375  Q 6.984375 53.65625 15.1875 63.9375  Q 23.390625 74.21875 37.203125 74.21875  Q 40.921875 74.21875 44.703125 73.484375  Q 48.484375 72.75 52.59375 71.296875  z " id="DejaVuSans-54"/>
     </defs>
     <use xlink:href="#DejaVuSans-48"/>
     <use x="63.623047" xlink:href="#DejaVuSans-46"/>
     <use x="95.410156" xlink:href="#DejaVuSans-53"/>
     <use x="159.033203" xlink:href="#DejaVuSans-54"/>
    </g>
   </g>
   <g id="text_5">
    <!-- D -->
    <g transform="translate(68.1425 12.718125)scale(0.12 -0.12)">
     <defs>
      <path d="M 19.671875 64.796875  L 19.671875 8.109375  L 31.59375 8.109375  Q 46.6875 8.109375 53.6875 14.9375  Q 60.6875 21.78125 60.6875 36.53125  Q 60.6875 51.171875 53.6875 57.984375  Q 46.6875 64.796875 31.59375 64.796875  z M 9.8125 72.90625  L 30.078125 72.90625  Q 51.265625 72.90625 61.171875 64.09375  Q 71.09375 55.28125 71.09375 36.53125  Q 71.09375 17.671875 61.125 8.828125  Q 51.171875 0 30.078125 0  L 9.8125 0  z " id="DejaVuSans-68"/>
     </defs>
     <use xlink:href="#DejaVuSans-68"/>
    </g>
   </g>
  </g>
 </g>
 <defs>
  <clipPath id="p73dceefd1c">
   <rect height="27.18" width="111.6" x="16.9625" y="18.718125"/>
  </clipPath>
 </defs>
</svg>

</g>
<!-- B&#45;&gt;D -->
<g id="edge1" class="edge">
<title>B-&gt;D</title>
<g id="a_edge1"><a xlink:title="(4, 6):">
<path fill="none" stroke="#4a4a4a" d="M248.5,-99.79C248.5,-91.96 248.5,-82.77 248.5,-74.16"/>
<polygon fill="#4a4a4a" stroke="#4a4a4a" points="252,-74.07 248.5,-64.07 245,-74.07 252,-74.07"/>
</a>
</g>
</g>
<!-- E&#45;&gt;D -->
<g id="edge5" class="edge">
<title>E-&gt;D</title>
<g id="a_edge5"><a xlink:title="(5, 6):">
<path fill="none" stroke="#4a4a4a" d="M160.46,-99.99C175.21,-90.69 193.04,-79.45 208.79,-69.53"/>
<polygon fill="#4a4a4a" stroke="#4a4a4a" points="210.69,-72.47 217.29,-64.17 206.96,-66.54 210.69,-72.47"/>
</a>
</g>
</g>
<!-- X -->
<g id="node8" class="node">
<title>X</title>
<polygon fill="#e0e0e0" stroke="#000000" points="180,-64 79,-64 79,-23 180,-23 180,-64"/>
<svg viewBox="0 0 132.1625 52.998125" width="101px" height="41px" preserveAspectRatio="xMinYMin meet" x="79" y="-64"> <metadata>
  <rdf:RDF xmlns:cc="http://creativecommons.org/ns#" xmlns:dc="http://purl.org/dc/elements/1.1/" xmlns:rdf="http://www.w3.org/1999/02/22-rdf-syntax-ns#">
   <cc:Work>
    <dc:type rdf:resource="http://purl.org/dc/dcmitype/StillImage"/>
    <dc:date>2022-08-04T14:41:34.440066</dc:date>
    <dc:format>image/svg+xml</dc:format>
    <dc:creator>
     <cc:Agent>
      <dc:title>Matplotlib v3.3.2, https://matplotlib.org/</dc:title>
     </cc:Agent>
    </dc:creator>
   </cc:Work>
  </rdf:RDF>
 </metadata>
 <defs>
  <style type="text/css">*{stroke-linecap:butt;stroke-linejoin:round;}</style>
 </defs>
 <g id="figure_1">
  <g id="patch_1">
   <path d="M 0 52.998125  L 132.1625 52.998125  L 132.1625 0  L 0 0  z " style="fill:#e0e0e0;"/>
  </g>
  <g id="axes_1">
   <g id="patch_2">
    <path d="M 16.9625 45.898125  L 128.5625 45.898125  L 128.5625 18.718125  L 16.9625 18.718125  z " style="fill:#ffffff;"/>
   </g>
   <g id="patch_3">
    <path clip-path="url(#p6bc39cfd6c)" d="M 16.9625 45.898125  L 29.270868 45.898125  L 29.270868 33.818125  L 16.9625 33.818125  z " style="fill:#8fbc8f;"/>
   </g>
   <g id="patch_4">
    <path clip-path="url(#p6bc39cfd6c)" d="M 16.9625 30.798125  L 116.254132 30.798125  L 116.254132 18.718125  L 16.9625 18.718125  z " style="fill:#8fbc8f;"/>
   </g>
   <g id="matplotlib.axis_1">
    <g id="xtick_1">
     <g id="line2d_1">
      <path clip-path="url(#p6bc39cfd6c)" d="M 16.9625 45.898125  L 16.9625 18.718125  " style="fill:none;stroke:#b0b0b0;stroke-linecap:square;stroke-width:0.8;"/>
     </g>
     <g id="line2d_2">
      <defs>
       <path d="M 0 0  L 0 3.5  " id="m727be368c6" style="stroke:#000000;stroke-width:0.8;"/>
      </defs>
      <g>
       <use style="stroke:#000000;stroke-width:0.8;" x="16.9625" xlink:href="#m727be368c6" y="45.898125"/>
      </g>
     </g>
    </g>
    <g id="xtick_2">
     <g id="line2d_3">
      <path clip-path="url(#p6bc39cfd6c)" d="M 72.7625 45.898125  L 72.7625 18.718125  " style="fill:none;stroke:#b0b0b0;stroke-linecap:square;stroke-width:0.8;"/>
     </g>
     <g id="line2d_4">
      <g>
       <use style="stroke:#000000;stroke-width:0.8;" x="72.7625" xlink:href="#m727be368c6" y="45.898125"/>
      </g>
     </g>
    </g>
    <g id="xtick_3">
     <g id="line2d_5">
      <path clip-path="url(#p6bc39cfd6c)" d="M 128.5625 45.898125  L 128.5625 18.718125  " style="fill:none;stroke:#b0b0b0;stroke-linecap:square;stroke-width:0.8;"/>
     </g>
     <g id="line2d_6">
      <g>
       <use style="stroke:#000000;stroke-width:0.8;" x="128.5625" xlink:href="#m727be368c6" y="45.898125"/>
      </g>
     </g>
    </g>
   </g>
   <g id="matplotlib.axis_2">
    <g id="ytick_1">
     <g id="line2d_7">
      <defs>
       <path d="M 0 0  L -3.5 0  " id="mc7d6cc55e4" style="stroke:#000000;stroke-width:0.8;"/>
      </defs>
      <g>
       <use style="stroke:#000000;stroke-width:0.8;" x="16.9625" xlink:href="#mc7d6cc55e4" y="39.858125"/>
      </g>
     </g>
     <g id="text_1">
      <!-- 1 -->
      <g transform="translate(3.6 43.657344)scale(0.1 -0.1)">
       <defs>
        <path d="M 12.40625 8.296875  L 28.515625 8.296875  L 28.515625 63.921875  L 10.984375 60.40625  L 10.984375 69.390625  L 28.421875 72.90625  L 38.28125 72.90625  L 38.28125 8.296875  L 54.390625 8.296875  L 54.390625 0  L 12.40625 0  z " id="DejaVuSans-49"/>
       </defs>
       <use xlink:href="#DejaVuSans-49"/>
      </g>
     </g>
    </g>
    <g id="ytick_2">
     <g id="line2d_8">
      <g>
       <use style="stroke:#000000;stroke-width:0.8;" x="16.9625" xlink:href="#mc7d6cc55e4" y="24.758125"/>
      </g>
     </g>
     <g id="text_2">
      <!-- 0 -->
      <g transform="translate(3.6 28.557344)scale(0.1 -0.1)">
       <defs>
        <path d="M 31.78125 66.40625  Q 24.171875 66.40625 20.328125 58.90625  Q 16.5 51.421875 16.5 36.375  Q 16.5 21.390625 20.328125 13.890625  Q 24.171875 6.390625 31.78125 6.390625  Q 39.453125 6.390625 43.28125 13.890625  Q 47.125 21.390625 47.125 36.375  Q 47.125 51.421875 43.28125 58.90625  Q 39.453125 66.40625 31.78125 66.40625  z M 31.78125 74.21875  Q 44.046875 74.21875 50.515625 64.515625  Q 56.984375 54.828125 56.984375 36.375  Q 56.984375 17.96875 50.515625 8.265625  Q 44.046875 -1.421875 31.78125 -1.421875  Q 19.53125 -1.421875 13.0625 8.265625  Q 6.59375 17.96875 6.59375 36.375  Q 6.59375 54.828125 13.0625 64.515625  Q 19.53125 74.21875 31.78125 74.21875  z " id="DejaVuSans-48"/>
       </defs>
       <use xlink:href="#DejaVuSans-48"/>
      </g>
     </g>
    </g>
   </g>
   <g id="patch_5">
    <path d="M 16.9625 45.898125  L 16.9625 18.718125  " style="fill:none;stroke:#000000;stroke-linecap:square;stroke-linejoin:miter;stroke-width:0.8;"/>
   </g>
   <g id="patch_6">
    <path d="M 128.5625 45.898125  L 128.5625 18.718125  " style="fill:none;stroke:#000000;stroke-linecap:square;stroke-linejoin:miter;stroke-width:0.8;"/>
   </g>
   <g id="patch_7">
    <path d="M 16.9625 45.898125  L 128.5625 45.898125  " style="fill:none;stroke:#000000;stroke-linecap:square;stroke-linejoin:miter;stroke-width:0.8;"/>
   </g>
   <g id="patch_8">
    <path d="M 16.9625 18.718125  L 128.5625 18.718125  " style="fill:none;stroke:#000000;stroke-linecap:square;stroke-linejoin:miter;stroke-width:0.8;"/>
   </g>
   <g id="text_3">
    <!-- 0.11 -->
    <g transform="translate(106.296875 43.818437)scale(0.1 -0.1)">
     <defs>
      <path d="M 10.6875 12.40625  L 21 12.40625  L 21 0  L 10.6875 0  z " id="DejaVuSans-46"/>
     </defs>
     <use xlink:href="#DejaVuSans-48"/>
     <use x="63.623047" xlink:href="#DejaVuSans-46"/>
     <use x="95.410156" xlink:href="#DejaVuSans-49"/>
     <use x="159.033203" xlink:href="#DejaVuSans-49"/>
    </g>
   </g>
   <g id="text_4">
    <!-- 0.89 -->
    <g transform="translate(106.296875 28.718437)scale(0.1 -0.1)">
     <defs>
      <path d="M 31.78125 34.625  Q 24.75 34.625 20.71875 30.859375  Q 16.703125 27.09375 16.703125 20.515625  Q 16.703125 13.921875 20.71875 10.15625  Q 24.75 6.390625 31.78125 6.390625  Q 38.8125 6.390625 42.859375 10.171875  Q 46.921875 13.96875 46.921875 20.515625  Q 46.921875 27.09375 42.890625 30.859375  Q 38.875 34.625 31.78125 34.625  z M 21.921875 38.8125  Q 15.578125 40.375 12.03125 44.71875  Q 8.5 49.078125 8.5 55.328125  Q 8.5 64.0625 14.71875 69.140625  Q 20.953125 74.21875 31.78125 74.21875  Q 42.671875 74.21875 48.875 69.140625  Q 55.078125 64.0625 55.078125 55.328125  Q 55.078125 49.078125 51.53125 44.71875  Q 48 40.375 41.703125 38.8125  Q 48.828125 37.15625 52.796875 32.3125  Q 56.78125 27.484375 56.78125 20.515625  Q 56.78125 9.90625 50.3125 4.234375  Q 43.84375 -1.421875 31.78125 -1.421875  Q 19.734375 -1.421875 13.25 4.234375  Q 6.78125 9.90625 6.78125 20.515625  Q 6.78125 27.484375 10.78125 32.3125  Q 14.796875 37.15625 21.921875 38.8125  z M 18.3125 54.390625  Q 18.3125 48.734375 21.84375 45.5625  Q 25.390625 42.390625 31.78125 42.390625  Q 38.140625 42.390625 41.71875 45.5625  Q 45.3125 48.734375 45.3125 54.390625  Q 45.3125 60.0625 41.71875 63.234375  Q 38.140625 66.40625 31.78125 66.40625  Q 25.390625 66.40625 21.84375 63.234375  Q 18.3125 60.0625 18.3125 54.390625  z " id="DejaVuSans-56"/>
      <path d="M 10.984375 1.515625  L 10.984375 10.5  Q 14.703125 8.734375 18.5 7.8125  Q 22.3125 6.890625 25.984375 6.890625  Q 35.75 6.890625 40.890625 13.453125  Q 46.046875 20.015625 46.78125 33.40625  Q 43.953125 29.203125 39.59375 26.953125  Q 35.25 24.703125 29.984375 24.703125  Q 19.046875 24.703125 12.671875 31.3125  Q 6.296875 37.9375 6.296875 49.421875  Q 6.296875 60.640625 12.9375 67.421875  Q 19.578125 74.21875 30.609375 74.21875  Q 43.265625 74.21875 49.921875 64.515625  Q 56.59375 54.828125 56.59375 36.375  Q 56.59375 19.140625 48.40625 8.859375  Q 40.234375 -1.421875 26.421875 -1.421875  Q 22.703125 -1.421875 18.890625 -0.6875  Q 15.09375 0.046875 10.984375 1.515625  z M 30.609375 32.421875  Q 37.25 32.421875 41.125 36.953125  Q 45.015625 41.5 45.015625 49.421875  Q 45.015625 57.28125 41.125 61.84375  Q 37.25 66.40625 30.609375 66.40625  Q 23.96875 66.40625 20.09375 61.84375  Q 16.21875 57.28125 16.21875 49.421875  Q 16.21875 41.5 20.09375 36.953125  Q 23.96875 32.421875 30.609375 32.421875  z " id="DejaVuSans-57"/>
     </defs>
     <use xlink:href="#DejaVuSans-48"/>
     <use x="63.623047" xlink:href="#DejaVuSans-46"/>
     <use x="95.410156" xlink:href="#DejaVuSans-56"/>
     <use x="159.033203" xlink:href="#DejaVuSans-57"/>
    </g>
   </g>
   <g id="text_5">
    <!-- X -->
    <g transform="translate(68.6525 12.718125)scale(0.12 -0.12)">
     <defs>
      <path d="M 6.296875 72.90625  L 16.890625 72.90625  L 35.015625 45.796875  L 53.21875 72.90625  L 63.8125 72.90625  L 40.375 37.890625  L 65.375 0  L 54.78125 0  L 34.28125 31  L 13.625 0  L 2.984375 0  L 29 38.921875  z " id="DejaVuSans-88"/>
     </defs>
     <use xlink:href="#DejaVuSans-88"/>
    </g>
   </g>
  </g>
 </g>
 <defs>
  <clipPath id="p6bc39cfd6c">
   <rect height="27.18" width="111.6" x="16.9625" y="18.718125"/>
  </clipPath>
 </defs>
</svg>

</g>
<!-- E&#45;&gt;X -->
<g id="edge2" class="edge">
<title>E-&gt;X</title>
<g id="a_edge2"><a xlink:title="(5, 7):">
<path fill="none" stroke="#4a4a4a" d="M129.5,-99.79C129.5,-91.96 129.5,-82.77 129.5,-74.16"/>
<polygon fill="#4a4a4a" stroke="#4a4a4a" points="133,-74.07 129.5,-64.07 126,-74.07 133,-74.07"/>
</a>
</g>
</g>
</g>
</svg>